<svg width="25" height="24" viewBox="0 0 25 24" fill="none" xmlns="http://www.w3.org/2000/svg">
<path d="M21.9125 12.7987C21.8763 12.7333 21.8332 12.672 21.7839 12.6157C20.2445 9.81032 18.8593 9.37232 17.7463 9.02132C17.3503 8.89644 16.976 8.77869 16.6355 8.56457C14.9863 7.52657 14.2487 6.12707 13.6554 5.00207C13.5755 4.85019 13.4983 4.70282 13.421 4.56182C12.3422 2.58332 10.6288 1.49394 8.59741 1.49394C8.18191 1.49394 7.75291 1.53969 7.32054 1.62894C6.71379 0.739817 5.70841 0.489317 4.80204 1.04319C3.89491 1.59707 3.60654 2.61032 4.04341 3.61944C2.31391 5.69769 2.06979 8.24919 3.38229 10.6563C3.45954 10.7977 3.54129 10.9436 3.62604 11.0939C4.25004 12.2009 5.02666 13.5787 5.05066 15.6146C5.05591 16.0394 4.96479 16.4437 4.86766 16.8723C4.60179 18.0494 4.27591 19.5127 5.74366 22.2618C5.76466 22.3717 5.80029 22.4756 5.85391 22.5731C6.09916 23.0223 6.61779 23.2499 7.39629 23.2499C9.16704 23.2499 12.1843 22.0784 15.2698 20.1937C19.1518 17.8214 22.7994 14.4239 21.9125 12.7987V12.7987ZM11.918 20.6681C11.9177 20.6688 11.9158 20.6688 11.915 20.6696H11.9128C10.5429 20.9298 9.22516 20.1659 8.65404 18.8962C9.33504 18.1871 11.7444 16.3098 13.5894 15.3431C13.9905 15.7976 14.2562 16.3554 14.3563 16.9533C14.6514 18.6911 13.5613 20.3534 11.918 20.6681V20.6681ZM20.3717 12.1218C18.5998 12.1218 15.5825 13.2933 12.4967 15.1781C9.57991 16.9604 6.79554 19.3218 5.96754 21.0757C5.10541 19.1242 5.33979 18.0614 5.57229 17.0328C5.67391 16.5824 5.77929 16.1167 5.77329 15.6063C5.74741 13.3829 4.91979 11.9152 4.25454 10.7358C4.17365 10.5936 4.09377 10.4509 4.01491 10.3076C2.80179 8.08194 3.05979 5.81244 4.74166 3.91719L4.91191 3.72594L4.78891 3.50094C4.63591 3.21932 4.20991 2.25444 5.17741 1.66382C5.39004 1.53369 5.59966 1.46769 5.79991 1.46769C6.19666 1.46769 6.57241 1.74032 6.83116 2.21544L6.96429 2.46032L7.23429 2.39357C7.67974 2.28097 8.13721 2.2228 8.59666 2.22032C10.3775 2.22032 11.8265 3.15069 12.7869 4.91132C12.8619 5.04932 12.938 5.19332 13.0164 5.34257C13.6498 6.54407 14.438 8.03919 16.2515 9.18032C16.6704 9.44394 17.1069 9.58119 17.5288 9.71432C18.4888 10.0169 19.4769 10.3334 20.651 12.1331C20.5581 12.1252 20.4649 12.1214 20.3717 12.1218Z" fill="black"/>
</svg>
