<svg width="279" height="126" viewBox="0 0 279 126" fill="none" xmlns="http://www.w3.org/2000/svg">
<path d="M91.2602 10.0598C89.1939 13.7333 86.7832 17.6363 84.0281 21.7689C81.2731 25.7867 78.4032 29.7471 75.4185 33.6501C72.5487 37.4383 69.564 41.1118 66.4646 44.6704C63.4799 48.1142 60.61 51.0415 57.855 53.4522C61.4136 55.4037 64.6279 57.47 67.4977 59.6511C70.3676 61.8322 73.0079 64.5873 75.4185 67.9163C77.944 71.2453 80.4121 75.378 82.8228 80.3141C85.3483 85.2503 88.1033 91.3918 91.088 98.7386C87.185 103.79 82.4784 108.037 76.9683 111.481C71.5729 114.925 66.0054 118.139 60.2657 121.124L59.4047 108.209C59.0603 103.732 58.6585 99.1978 58.1994 94.606C57.855 89.8995 57.1088 85.4799 55.9609 81.3473C54.9277 77.2147 53.378 73.4838 51.3117 70.1548C49.2454 66.711 46.4329 63.9559 42.8743 61.8896C42.0707 62.1192 41.4394 62.4062 40.9802 62.7505C40.521 62.9801 39.66 63.3819 38.3973 63.9559C39.0861 70.1548 40.4636 76.5259 42.5299 83.0692C44.711 89.4977 47.4661 96.041 50.7951 102.699L41.3246 108.898C38.6843 110.735 35.757 112.629 32.5428 114.58C29.3285 116.417 24.7367 118.082 18.7674 119.574C16.9307 113.145 15.668 107.233 14.9792 101.838C14.4052 96.328 14.1182 91.1048 14.1182 86.1686C14.1182 83.5284 14.1182 80.8307 14.1182 78.0756C14.1182 75.3206 14.233 72.6229 14.4626 69.9826C13.1999 69.753 11.478 69.3512 9.29688 68.7773C7.23057 68.2033 4.30331 67.2275 0.51509 65.85C2.92578 64.2429 4.93468 62.9801 6.54181 62.0618C8.03413 61.0286 9.23948 60.2825 10.1578 59.8233C11.0762 59.2493 11.8224 58.8475 12.3963 58.6179C12.9703 58.3884 13.4869 58.1588 13.9461 57.9292C14.6348 57.5848 14.9792 57.47 14.9792 57.5848C14.9792 57.5848 15.2662 57.3552 15.8402 56.896C16.1845 55.0593 16.4141 53.3948 16.5289 51.9025C16.7585 50.4101 16.9881 48.8604 17.2177 47.2533C17.5621 44.2686 17.9065 41.284 18.2509 38.2993C18.71 35.1999 19.3414 31.9856 20.145 28.6566C20.9485 25.3275 21.9817 21.7689 23.2444 17.9807C24.6219 14.1924 26.4013 10.0598 28.5824 5.58285L36.331 7.99353C35.8718 10.6338 35.5848 13.3315 35.47 16.0865C35.3552 18.7268 35.2978 21.2523 35.2978 23.663C35.2978 27.1068 35.3552 30.5507 35.47 33.9945C35.6996 37.3236 36.044 40.5952 36.5032 43.8094C39.3731 41.1692 41.8411 38.4715 43.9074 35.7164C46.0885 32.8466 48.04 29.8619 49.762 26.7625C51.4839 23.663 53.091 20.3914 54.5833 16.9475C56.1905 13.3889 57.7976 9.65806 59.4047 5.75504L91.2602 10.0598ZM61.2988 8.85449C59.5769 12.9871 57.855 16.8901 56.1331 20.5635C54.5259 24.1222 52.6892 27.566 50.6229 30.8951C48.5566 34.1093 46.2033 37.2662 43.5631 40.3656C40.9228 43.4651 37.8233 46.5071 34.2647 49.4918C33.6907 45.5888 33.2315 41.3988 32.8872 36.9218C32.5428 32.4448 32.3706 28.0252 32.3706 23.663C32.3706 18.0381 32.715 12.9871 33.4037 8.51011L30.6487 7.64916C28.6972 11.7818 27.09 15.6274 25.8273 19.186C24.5646 22.6298 23.5314 25.9589 22.7278 29.1731C22.0391 32.3874 21.4651 35.5442 21.0059 38.6437C20.6615 41.6283 20.3172 44.613 19.9728 47.5977C19.7432 49.4344 19.5136 51.3285 19.284 53.28C19.0544 55.1167 18.7674 57.0682 18.423 59.1345L14.9792 60.5121L6.88619 64.989C9.64126 66.0222 11.765 66.6536 13.2573 66.8832C14.8644 67.1127 16.2419 67.2275 17.3899 67.2275C17.2751 70.4418 17.1603 73.656 17.0455 76.8703C16.9307 79.9697 16.8733 83.0692 16.8733 86.1686C16.8733 91.1048 17.1029 96.0984 17.5621 101.149C18.1361 106.085 19.1692 111.136 20.6615 116.302C24.7941 115.154 28.2954 113.719 31.1652 111.997C34.1499 110.161 37.0772 108.324 39.947 106.487V106.659L47.3513 102.01C43.9074 95.467 41.2098 88.9237 39.2583 82.3804C37.3068 75.7223 36.044 68.9495 35.47 62.0618L43.2187 58.6179C47.1217 60.9138 50.2211 63.8985 52.517 67.5719C54.9277 71.2453 56.7644 75.3206 58.0272 79.7975C59.2899 84.1597 60.2083 88.8089 60.7822 93.7451C61.3562 98.6812 61.8154 103.445 62.1598 108.037L62.6763 116.819C67.4977 114.293 72.0321 111.653 76.2795 108.898C80.6417 106.143 84.4873 102.642 87.8164 98.3943C84.8317 91.0474 82.0766 84.9633 79.5512 80.1419C77.1405 75.3206 74.5576 71.3027 71.8025 68.0885C69.1622 64.8742 66.2924 62.234 63.1929 60.1677C60.2083 57.9866 56.707 55.8629 52.6892 53.7966C55.7887 51.6155 58.9455 48.8604 62.1598 45.5314C65.374 42.2023 68.4161 38.6437 71.2859 34.8555C74.2706 31.0672 77.0831 27.279 79.7233 23.4908C82.3636 19.5878 84.6595 15.9144 86.611 12.4705L61.2988 8.85449ZM84.0281 13.6759C82.0766 17.1197 79.7807 20.7357 77.1405 24.524C74.5002 28.3122 71.6303 32.1004 68.5309 35.8886C65.5462 39.562 62.3894 43.0059 59.0603 46.2201C55.8461 49.4344 52.6318 52.0173 49.4176 53.9688C53.7798 56.1499 57.568 58.2736 60.7822 60.3399C64.1113 62.4062 67.1533 64.989 69.9084 68.0885C72.7783 71.188 75.4759 75.1484 78.0014 79.9697C80.5269 84.6763 83.2246 90.703 86.0944 98.0499C83.2246 101.723 79.8381 104.823 75.9351 107.348C72.1469 109.759 68.1865 112.055 64.0539 114.236C63.7095 109.185 63.3077 103.79 62.8485 98.0499C62.5042 92.3101 61.6432 86.8 60.2657 81.5195C59.0029 76.2389 57.0514 71.4175 54.4111 67.0553C51.7709 62.6932 48.0974 59.3067 43.3909 56.896C41.7837 57.5848 40.1766 58.2736 38.5695 58.9623C36.9624 59.6511 35.4126 60.3399 33.9203 61.0286C34.3795 68.3755 35.5274 75.3206 37.3641 81.8638C39.2009 88.4071 41.7837 94.893 45.1128 101.322C41.4394 103.617 37.7659 106.028 34.0925 108.554C30.5339 110.964 26.4013 112.858 21.6947 114.236C20.6615 110.333 19.9154 106.372 19.4562 102.355C18.997 98.3369 18.71 94.3191 18.5952 90.3012C18.4804 86.1686 18.4804 82.036 18.5952 77.9034C18.71 73.7708 18.8822 69.6956 19.1118 65.6778C17.7343 65.6778 16.2419 65.6778 14.6348 65.6778C13.1425 65.563 11.6502 65.2186 10.1578 64.6447C11.765 63.6115 13.3721 62.8079 14.9792 62.234C16.7011 61.5452 18.3082 60.7416 19.8006 59.8233C20.4893 55.4611 21.0059 51.3285 21.3503 47.4255C21.8095 43.5225 22.3835 39.6194 23.0722 35.7164C23.761 31.8134 24.7367 27.7382 25.9995 23.4908C27.2622 19.1286 29.2137 14.2498 31.854 8.85449C31.28 12.1835 30.9357 15.7422 30.8209 19.5304C30.8209 23.3186 30.8783 27.1068 30.993 30.8951C31.2226 34.5685 31.5096 38.2993 31.854 42.0875C32.1984 45.7609 32.6576 49.1474 33.2315 52.2468C37.3641 49.1474 40.8654 46.0479 43.7352 42.9485C46.6051 39.7342 49.1306 36.4626 51.3117 33.1335C53.4928 29.6897 55.3869 26.1311 56.994 22.4576C58.7159 18.7842 60.4953 14.8812 62.332 10.7486L84.0281 13.6759ZM102.262 11.7818C103.295 11.3226 104.443 10.7486 105.705 10.0598C107.083 9.25628 108.461 8.51011 109.838 7.82134C111.33 7.01779 112.765 6.27162 114.143 5.58285C115.635 4.89408 116.898 4.26271 117.931 3.68874C121.605 17.4641 123.441 30.4933 123.441 42.7763C123.441 53.9114 122.006 65.9074 119.136 78.7644C116.267 91.6214 111.56 105.454 105.017 120.263L96.7515 113.892C97.6699 107.119 98.3012 100.575 98.6456 94.2617C99.1048 87.948 99.3344 81.9786 99.3344 76.3537C99.3344 70.7288 99.1048 65.1038 98.6456 59.4789C98.3012 53.854 97.7273 48.516 96.9237 43.4651C96.2349 38.4141 95.3166 33.7075 94.1686 29.3453C93.1355 24.9831 91.9301 21.2523 90.5526 18.1529L102.262 11.7818ZM93.8242 19.3582C95.087 22.2281 96.1775 25.7293 97.0959 29.8619C98.129 33.8797 98.99 38.4141 99.6788 43.4651C100.368 48.4012 100.884 53.6818 101.228 59.3067C101.573 64.8169 101.745 70.4992 101.745 76.3537C101.745 82.2082 101.573 88.2349 101.228 94.4338C100.884 100.518 100.31 106.602 99.5066 112.686L104.156 116.13C110.01 102.469 114.258 89.6125 116.898 77.559C119.653 65.3908 121.031 53.7966 121.031 42.7763C121.031 30.7229 119.481 19.0138 116.381 7.64916C114.2 8.68231 111.962 9.83025 109.666 11.093C107.37 12.2409 105.246 13.3315 103.295 14.3646L93.8242 19.3582ZM95.7184 20.2192C99.277 18.3824 102.549 16.6031 105.533 14.8812C108.633 13.1593 111.962 11.4374 115.52 9.71545C119.423 24.524 120.571 40.5952 118.964 57.9292C117.357 75.1484 112.249 93.7451 103.639 113.719L100.884 111.825C102.032 103.445 102.721 94.7208 102.95 85.6521C103.18 76.4685 103.065 67.6867 102.606 59.3067C102.147 50.9267 101.343 43.3503 100.195 36.5774C99.0474 29.6897 97.5551 24.237 95.7184 20.2192ZM162.01 57.9292C166.027 57.9292 169.816 56.609 173.374 53.9688C176.933 51.2137 179.516 47.0811 181.123 41.5709C179.057 38.1271 176.187 35.5442 172.513 33.8223C168.955 32.1004 165.339 31.2394 161.665 31.2394C157.992 31.2394 154.892 32.043 152.367 33.6501C151.908 36.9792 151.563 40.4804 151.334 44.1538C151.104 47.8273 150.932 51.3285 150.817 54.6575C154.49 56.8386 158.221 57.9292 162.01 57.9292ZM147.201 2.99997C149.612 4.95148 151.391 6.7308 152.539 8.33792C153.802 9.94505 154.663 11.5522 155.122 13.1593L161.665 6.7882C162.928 6.5586 164.191 6.38641 165.453 6.27162C166.716 6.15682 167.921 6.09943 169.069 6.09943C173.891 6.09943 178.253 6.90299 182.156 8.51011C186.059 10.1172 189.388 12.2983 192.143 15.0534C194.898 17.8085 197.022 21.0801 198.514 24.8683C200.007 28.6566 200.753 32.6744 200.753 36.9218C200.753 41.0544 199.892 45.474 198.17 50.1805C196.448 54.7723 193.75 59.4789 190.077 64.3003L188.699 63.6115C187.781 66.9405 185.944 70.04 183.189 72.9099C188.355 75.8945 192.43 80.4863 195.415 86.6852C198.514 92.8841 200.925 100.001 202.647 108.037L170.275 123.534C170.964 119.976 171.48 116.876 171.824 114.236C172.284 111.481 172.513 109.415 172.513 108.037C172.513 103.101 171.882 98.2795 170.619 93.5729C169.471 88.8663 168.094 85.3651 166.487 83.0692L156.499 87.8906C157.533 90.5308 158.91 93.4007 160.632 96.5002C162.354 99.5996 164.535 103.273 167.175 107.52L135.492 123.018C130.211 104.421 127.571 88.0054 127.571 73.7708C127.571 61.947 129.236 50.1805 132.565 38.4715C135.894 26.6477 140.773 14.8238 147.201 2.99997ZM152.022 20.047C152.252 19.2434 152.424 18.4398 152.539 17.6363C152.654 16.8327 152.711 16.0866 152.711 15.3978C152.711 12.5279 151.104 9.83025 147.89 7.30477C142.15 17.8659 137.788 28.6566 134.803 39.6768C131.819 50.6971 130.326 62.0618 130.326 73.7708C130.326 87.661 132.565 102.756 137.042 119.057L163.215 106.487C160.919 103.043 159.025 99.944 157.533 97.1889C156.155 94.4338 155.007 91.9084 154.089 89.6125C153.17 87.3166 152.424 85.1355 151.85 83.0692C151.391 80.8881 150.989 78.6496 150.645 76.3537L156.499 84.6189L167.175 79.6254C168.208 80.6585 169.184 82.2082 170.103 84.2745C171.021 86.226 171.882 88.5219 172.685 91.1622C173.489 93.6877 174.12 96.4428 174.58 99.4274C175.039 102.297 175.268 105.167 175.268 108.037C175.268 110.562 174.809 114.121 173.891 118.713L199.547 106.315C198.629 102.182 197.596 98.3369 196.448 94.7782C195.3 91.2196 193.922 88.0627 192.315 85.3077C190.708 82.4378 188.699 80.0271 186.289 78.0756C183.993 76.1241 181.123 74.6892 177.679 73.7708C180.09 72.2785 181.984 70.4418 183.361 68.2607C184.854 65.9648 185.887 63.4967 186.461 60.8564L188.527 61.5452C191.741 57.2978 194.095 53.1078 195.587 48.9752C197.194 44.7278 197.998 40.71 197.998 36.9218C197.998 33.0188 197.309 29.4027 195.931 26.0737C194.554 22.6298 192.602 19.6452 190.077 17.1197C187.551 14.5942 184.509 12.6427 180.951 11.2652C177.392 9.77285 173.432 9.02669 169.069 9.02669C167.921 9.02669 166.831 9.02669 165.798 9.02669C164.765 9.02669 163.789 9.14149 162.87 9.37107L152.022 20.047ZM162.01 60.8564C157.073 60.8564 152.424 59.3067 148.062 56.2073C148.177 52.3042 148.349 48.2864 148.579 44.1538C148.808 39.9064 149.21 35.7738 149.784 31.756C153.343 29.4601 157.303 28.3122 161.665 28.3122C166.257 28.3122 170.734 29.5175 175.096 31.9282C179.573 34.3389 182.845 37.8975 184.911 42.6041L183.706 42.4319C182.213 48.516 179.401 53.1078 175.268 56.2073C171.25 59.3067 166.831 60.8564 162.01 60.8564ZM163.387 11.093C170.619 9.94504 176.875 10.6912 182.156 13.3315C187.437 15.9718 191.282 19.76 193.693 24.6961C196.104 29.5175 196.907 35.0851 196.104 41.3988C195.3 47.7125 192.487 53.9688 187.666 60.1677C188.699 55.1167 188.757 50.6971 187.838 46.9089C187.035 43.1207 185.6 39.849 183.534 37.094C181.467 34.3389 178.884 32.1578 175.785 30.5507C172.685 28.8288 169.529 27.7382 166.314 27.279C163.1 26.7051 159.886 26.7051 156.672 27.279C153.572 27.853 150.817 29.0009 148.406 30.7229C147.832 34.7407 147.373 39.0455 147.029 43.6373C146.799 48.229 146.627 52.5912 146.512 56.7238C149.956 59.4789 153.63 61.2008 157.533 61.8896C161.55 62.5784 165.396 62.3488 169.069 61.2008C172.743 60.0529 176.014 57.9866 178.884 55.0019C181.869 52.0173 183.935 48.229 185.083 43.6373C185.657 46.7367 185.887 49.8936 185.772 53.1078C185.772 56.2073 185.313 59.1919 184.394 62.0618C183.591 64.8169 182.271 67.2849 180.434 69.466C178.597 71.6471 176.072 73.3116 172.858 74.4596C176.875 75.0336 180.204 76.1815 182.845 77.9034C185.6 79.6254 187.896 81.8064 189.732 84.4467C191.684 87.087 193.234 90.1865 194.382 93.7451C195.644 97.3037 196.735 101.207 197.653 105.454L176.129 115.958C176.818 112.629 177.048 108.955 176.818 104.938C176.588 100.92 176.014 97.0741 175.096 93.4007C174.178 89.6125 173.03 86.3408 171.652 83.5858C170.275 80.7159 168.84 78.7644 167.347 77.7312L157.016 82.7248L147.89 69.9826C148.349 73.0821 148.808 75.9519 149.267 78.5922C149.841 81.2325 150.53 83.9301 151.334 86.6852C152.252 89.3255 153.457 92.1954 154.95 95.2948C156.442 98.3943 158.451 101.895 160.976 105.799L138.247 116.819C132.507 96.5002 130.613 77.5017 132.565 59.8233C134.631 42.1449 139.912 25.4423 148.406 9.71545C149.554 10.6338 150.3 11.667 150.645 12.8149C151.104 13.9629 151.219 15.2256 150.989 16.6031C150.874 17.9807 150.53 19.473 149.956 21.0801C149.497 22.5725 148.98 24.1222 148.406 25.7293L163.387 11.093ZM236.098 51.5581C238.049 51.6729 239.829 51.7877 241.436 51.9025C243.043 52.0173 244.65 52.1894 246.257 52.419C244.994 50.1231 243.674 47.942 242.297 45.8757C241.034 43.6947 239.656 41.6283 238.164 39.6768C237.36 41.7431 236.729 43.6946 236.27 45.5314C235.926 47.2533 235.466 49.2622 234.892 51.5581H236.098ZM197.699 63.6115C200.339 61.2008 202.406 59.3641 203.898 58.1014C205.505 56.7238 206.768 55.7481 207.686 55.1741C208.604 54.4853 209.293 54.0262 209.752 53.7966C210.326 53.567 210.9 53.3374 211.474 53.1078L212.852 52.419C214.689 48.0568 216.697 43.752 218.879 39.5046C221.06 35.1425 223.757 30.8377 226.972 26.5903C230.186 22.2281 234.089 17.9233 238.681 13.6759C243.272 9.31367 248.897 4.95148 255.555 0.589288L252.112 8.85449L252.456 8.33792C261.525 20.7357 268.068 33.7075 272.086 47.2533C276.218 60.6842 278.285 75.378 278.285 91.3344C278.285 94.0895 278.227 97.2463 278.113 100.805C277.998 104.364 277.826 107.635 277.596 110.62L265.715 125.256C265.37 120.55 264.969 115.786 264.509 110.964C264.05 106.143 263.534 101.551 262.96 97.1889C262.386 92.7119 261.697 88.5793 260.893 84.7911C260.09 80.8881 259.114 77.5016 257.966 74.6318L256.416 77.559C255.842 78.5922 255.039 79.9123 254.006 81.5195C252.973 83.1266 251.308 85.4225 249.012 88.4071C245.683 84.9633 242.584 81.9212 239.714 79.281C236.844 76.5259 234.204 74.4022 231.793 72.9099V73.5986C231.793 77.9608 232.252 82.7248 233.17 87.8906C234.089 92.9415 235.237 98.2221 236.614 103.732C235.237 104.536 233.457 105.512 231.276 106.659C229.095 107.807 227.373 108.726 226.111 109.415C224.848 110.103 223.298 110.964 221.461 111.997C219.74 112.916 217.903 113.892 215.951 114.925C214.115 115.843 212.278 116.761 210.441 117.68C208.604 118.598 207.055 119.402 205.792 120.09C205.677 118.139 205.562 115.9 205.448 113.375C205.333 110.849 205.218 108.381 205.103 105.971C204.988 103.445 204.874 101.092 204.759 98.9108C204.759 96.6149 204.759 94.7782 204.759 93.4007C204.759 88.0054 204.988 83.184 205.448 78.9366C206.022 74.5744 206.94 69.9826 208.203 65.1612L197.699 63.6115ZM204.242 61.7174C204.931 61.8322 205.62 61.947 206.309 62.0618C207.112 62.0618 207.801 62.1192 208.375 62.234C209.064 62.3488 209.695 62.4062 210.269 62.4062H211.647C210.843 65.1612 210.154 67.8015 209.58 70.327C209.121 72.7377 208.719 75.1484 208.375 77.559C208.03 79.9697 207.801 82.4952 207.686 85.1355C207.571 87.661 207.514 90.416 207.514 93.4007C207.514 96.2706 207.571 99.7144 207.686 103.732C207.916 107.635 208.145 111.596 208.375 115.613C210.9 114.351 213.655 112.973 216.64 111.481C219.74 109.874 222.437 108.439 224.733 107.176C225.996 106.372 227.259 105.569 228.521 104.765C229.784 103.847 231.391 102.929 233.343 102.01C232.08 96.9593 231.047 92.0806 230.243 87.374C229.44 82.5526 229.038 77.9608 229.038 73.5986V68.2607C232.711 69.9826 236.04 72.1637 239.025 74.804C242.124 77.4443 245.396 80.5437 248.84 84.1023C250.103 82.3804 251.136 80.8881 251.939 79.6254C252.743 78.3626 253.432 77.2147 254.006 76.1815C254.809 74.9188 255.498 73.7134 256.072 72.5655C256.761 71.4175 257.564 70.327 258.483 69.2938C261.927 75.7223 264.165 83.184 265.198 91.6788C266.231 100.174 267.092 108.955 267.781 118.024L275.013 109.242C275.243 106.258 275.358 103.216 275.358 100.116C275.472 97.0167 275.53 94.0895 275.53 91.3344C275.53 75.7223 273.693 61.4878 270.02 48.6308C266.346 35.7738 260.377 23.7204 252.112 12.4705C250.504 14.0777 249.127 15.4552 247.979 16.6031C246.831 17.7511 245.683 18.7842 244.535 19.7026L245.224 18.6694C245.109 18.7842 244.994 18.899 244.88 19.0138C244.765 19.1286 244.88 18.7842 245.224 17.9807L249.529 7.82134C244.707 10.9208 240.517 14.3072 236.959 17.9807C233.4 21.5393 230.301 25.3275 227.66 29.3453C225.02 33.2483 222.724 37.3236 220.773 41.5709C218.821 45.7036 216.927 49.951 215.09 54.3131L212.68 55.6907C212.22 55.9203 211.761 56.1499 211.302 56.3794C210.843 56.4942 210.326 56.7238 209.752 57.0682C209.178 57.4126 208.432 57.9866 207.514 58.7901C206.71 59.4789 205.62 60.4547 204.242 61.7174ZM231.793 53.9688C232.367 50.6397 233.056 47.2533 233.859 43.8094C234.778 40.3656 235.868 37.094 237.131 33.9945C238.853 35.8312 240.345 37.6105 241.608 39.3325C242.871 41.0544 244.019 42.7763 245.052 44.4982C246.085 46.2201 247.061 47.9994 247.979 49.8362C249.012 51.6729 250.103 53.6818 251.251 55.8629C251.365 56.0925 251.423 56.2647 251.423 56.3794C251.538 56.3794 251.652 56.4942 251.767 56.7238C249.012 55.8055 246.429 55.2315 244.019 55.0019C241.608 54.7723 238.968 54.5427 236.098 54.3131L231.793 53.9688ZM216.296 55.6907C218.132 51.2137 220.027 46.9089 221.978 42.7763C223.93 38.6437 226.053 34.7407 228.349 31.0672C230.645 27.279 233.228 23.7778 236.098 20.5635C238.968 17.2345 242.411 14.3072 246.429 11.7818C245.74 13.0445 245.167 14.2498 244.707 15.3978C244.248 16.4309 243.789 17.4641 243.33 18.4972C242.871 19.5304 242.411 20.5635 241.952 21.5967C241.493 22.515 240.862 23.6056 240.058 24.8683C241.321 24.0648 242.411 23.2612 243.33 22.4576C244.363 21.6541 245.281 20.9079 246.085 20.2192C247.003 19.4156 247.922 18.612 248.84 17.8085C249.758 16.8901 250.791 15.9144 251.939 14.8812C261.008 27.3938 267.207 41.284 270.536 56.5516C273.865 71.8193 274.841 89.2107 273.463 108.726L268.986 113.892C268.757 109.644 268.412 105.397 267.953 101.149C267.609 96.9019 267.092 92.7693 266.404 88.7515C265.715 84.7337 264.739 80.8881 263.476 77.2147C262.328 73.4264 260.779 69.8678 258.827 66.5388C256.646 68.7199 254.867 71.1879 253.489 73.943C252.112 76.6981 250.504 79.281 248.668 81.6917C245.339 78.2478 242.124 75.2632 239.025 72.7377C236.04 70.0974 232.31 67.8589 227.833 66.0222C227.144 72.1063 227.201 78.0182 228.005 83.758C228.923 89.4977 230.128 95.3522 231.621 101.322C227.718 103.388 224.044 105.454 220.6 107.52C217.271 109.472 213.655 111.366 209.752 113.203C209.408 106.659 209.178 101.092 209.064 96.5002C209.064 91.9084 209.178 87.7184 209.408 83.9301C209.752 80.1419 210.212 76.5259 210.786 73.0821C211.474 69.5234 212.45 65.6204 213.713 61.373C212.909 61.1434 212.278 61.0286 211.819 61.0286C211.474 60.9138 211.073 60.8564 210.613 60.8564C210.154 60.8564 209.695 60.8564 209.236 60.8564C208.891 60.7416 208.317 60.6268 207.514 60.5121C208.432 59.7085 209.178 59.1345 209.752 58.7901C210.326 58.331 210.9 57.9866 211.474 57.757C212.163 57.5274 212.852 57.2978 213.541 57.0682C214.229 56.7238 215.148 56.2647 216.296 55.6907ZM229.899 55.6907C232.424 55.8055 234.72 55.9203 236.787 56.0351C238.853 56.1499 240.862 56.3221 242.813 56.5516C244.765 56.6664 246.716 56.9534 248.668 57.4126C250.619 57.8718 252.743 58.6179 255.039 59.6511C253.547 56.7812 252.169 54.141 250.906 51.7303C249.758 49.2048 248.496 46.8515 247.118 44.6704C245.74 42.3745 244.191 40.1934 242.469 38.1271C240.862 35.946 238.91 33.7075 236.614 31.4116C235.122 35.1999 233.744 39.2177 232.482 43.4651C231.334 47.5977 230.473 51.6729 229.899 55.6907Z" fill="white"/>
</svg>
