<svg width="30" height="24" viewBox="0 0 30 24" fill="none" xmlns="http://www.w3.org/2000/svg">
<g clip-path="url(#clip0_142_76)">
<path d="M29.5729 2.92258C28.4721 3.41024 27.3045 3.73035 26.1089 3.87224C27.3542 3.12583 28.3104 1.94386 28.7607 0.535554C27.5768 1.23808 26.2816 1.73306 24.9309 1.9991C23.8307 0.826999 22.2634 0.0944824 20.5286 0.0944824C17.1978 0.0944824 14.4972 2.79488 14.4972 6.12549C14.4972 6.59825 14.5506 7.0585 14.6534 7.50003C9.64097 7.24843 5.19695 4.8474 2.22221 1.19848C1.70317 2.08924 1.40575 3.12537 1.40575 4.23052C1.40575 6.323 2.47059 8.16893 4.08882 9.25054C3.13105 9.22054 2.19436 8.96186 1.35695 8.49609C1.3566 8.52135 1.3566 8.54662 1.3566 8.572C1.3566 11.4941 3.43553 13.9318 6.1945 14.4859C5.30637 14.7274 4.37478 14.7628 3.4709 14.5892C4.23833 16.9853 6.46573 18.7289 9.10482 18.7777C7.0407 20.3953 4.44009 21.3595 1.61452 21.3595C1.12763 21.3595 0.647628 21.3309 0.175781 21.2752C2.84483 22.9865 6.01502 23.9849 9.42095 23.9849C20.5146 23.9849 26.5808 14.7948 26.5808 6.82493C26.5808 6.56334 26.5751 6.30325 26.5634 6.04465C27.7441 5.19108 28.7632 4.13385 29.5729 2.92258" fill="#55ACEE"/>
</g>
<defs>
<clipPath id="clip0_142_76">
<rect width="29.4" height="24" fill="white" transform="translate(0.173828)"/>
</clipPath>
</defs>
</svg>
