<svg width="32" height="24" viewBox="0 0 32 24" fill="none" xmlns="http://www.w3.org/2000/svg">
<g clip-path="url(#clip0_142_78)">
<path d="M26.4504 2.00165C24.4256 1.05428 22.2835 0.381129 20.0808 0C19.8065 0.49604 19.4859 1.16322 19.2648 1.69399C16.8899 1.33688 14.5368 1.33688 12.2056 1.69399C11.9846 1.16334 11.6568 0.49604 11.3799 0C9.17505 0.381305 7.03117 1.05617 5.00545 2.00659C0.974414 8.09813 -0.11837 14.0382 0.427962 19.8942C3.10161 21.8908 5.69265 23.1037 8.24002 23.8974C8.87311 23.0268 9.43274 22.105 9.91315 21.1417C8.99853 20.7935 8.1168 20.3644 7.27845 19.8595C7.49907 19.6959 7.7145 19.5255 7.9244 19.3485C13.0044 21.7246 18.5242 21.7246 23.5437 19.3485C23.7545 19.5243 23.9699 19.6947 24.1895 19.8595C23.3498 20.3657 22.4665 20.7957 21.55 21.1442C22.0331 22.1115 22.5918 23.0341 23.2231 23.8998C25.7729 23.1062 28.3664 21.8933 31.04 19.8942C31.6811 13.1057 29.9449 7.22002 26.4504 2.00153V2.00165ZM10.6053 16.2929C9.08026 16.2929 7.82961 14.8691 7.82961 13.1355C7.82961 11.4018 9.05361 9.97568 10.6053 9.97568C12.1571 9.97568 13.4076 11.3993 13.381 13.1355C13.3834 14.8691 12.1571 16.2929 10.6053 16.2929ZM20.8627 16.2929C19.3377 16.2929 18.0871 14.8691 18.0871 13.1355C18.0871 11.4018 19.311 9.97568 20.8627 9.97568C22.4145 9.97568 23.665 11.3993 23.6384 13.1355C23.6384 14.8691 22.4145 16.2929 20.8627 16.2929V16.2929Z" fill="#5865F2"/>
</g>
<defs>
<clipPath id="clip0_142_78">
<rect width="30.876" height="24" fill="white" transform="translate(0.296875)"/>
</clipPath>
</defs>
</svg>
