<svg width="240" height="240" viewBox="0 0 240 240" fill="none" xmlns="http://www.w3.org/2000/svg">
<path fill-rule="evenodd" clip-rule="evenodd" d="M108.491 2.4795C81.2296 4.20359 74.4051 6.69531 68.9044 16.9352L64.9882 24.2297L80.9402 47.3018C96.0855 69.206 96.7013 70.5278 93.0684 73.3726C84.7866 79.8625 81.5395 81.014 79.8257 78.0748C78.9288 76.5354 71.8148 66.5008 64.0174 55.7765C50.3068 36.9244 49.5904 36.2922 42.3698 36.7274C29.2523 37.5155 25.9232 41.5343 12.4691 72.8081C5.57271 88.8401 -0.0387953 103.343 0.000202037 105.036C0.0391994 106.73 2.60481 111.169 5.70202 114.905L11.3341 121.692L36.6413 118.246C61.3717 114.88 62.0388 114.892 65.9344 118.788C69.1178 121.971 69.5222 123.823 67.9418 127.983C65.5013 134.403 59.4342 135.813 34.0818 135.854C23.7804 135.873 14.3266 136.565 13.0746 137.394C10.3058 139.225 4.06413 151.082 4.06413 154.508C4.06413 158.83 34.9644 205.337 41.4728 210.816C46.3619 214.929 49.5473 215.945 56.0496 215.462L64.3704 214.845L76.8065 189.691L89.2425 164.54L96.4262 168.153C100.377 170.139 103.472 173.146 103.304 174.833C103.136 176.521 98.1113 188.289 92.1406 200.988L81.285 224.075L87.3173 230.413C90.6341 233.898 94.971 237.629 96.9558 238.707C101.044 240.924 163.697 235.019 167.412 232.067C168.637 231.094 170.837 226.669 172.301 222.234L174.963 214.169L159.495 192.988C144.662 172.676 144.143 171.582 146.835 166.373C148.718 162.734 151.757 160.63 156.051 160C162.184 159.101 163.003 159.899 175.258 178.743C191.243 203.322 192.51 204.387 203.714 202.706L212.521 201.386L226.31 173.717C241.394 143.453 242.976 135.432 236.086 124.135C232.617 118.445 231.193 117.702 225.319 118.519C221.595 119.036 209.344 120.332 198.092 121.399C175.49 123.54 174.507 123.141 174.452 111.832C174.417 104.474 172.894 104.942 209.884 100.981C219.793 99.9195 228.773 98.5115 229.838 97.8526C230.905 97.1938 232.853 93.0601 234.169 88.6698C237.291 78.2554 234.311 72.2478 211.382 42.7289L194.074 20.445L184.843 21.7113C179.766 22.4071 174.879 23.7105 173.982 24.6074C173.087 25.5023 168.292 36.3374 163.327 48.6831C154.935 69.5631 153.853 71.2215 147.835 72.451C142.486 73.545 140.813 72.9333 138.188 68.9269C135.167 64.317 135.577 63.0198 146.507 42.5523C152.829 30.7136 158.001 19.4659 158.001 17.5571C158.001 15.6503 155.645 10.9994 152.765 7.22281C146.911 -0.451454 149.869 -0.135372 108.491 2.4795ZM143.634 5.53155C143.634 7.38905 125.011 43.8967 116.432 58.8553C101.289 85.2626 93.7642 90.4821 63.5864 95.5189C34.7879 100.324 6.14124 103.694 4.8728 102.426C2.93525 100.488 25.0057 50.8978 30.4284 45.001C34.87 40.1715 45.114 37.0311 45.114 40.4978C45.114 41.1279 40.4958 52.2483 34.8515 65.2118C22.8116 92.8651 22.4606 95.0304 30.2334 93.7189C33.3368 93.1955 44.6521 91.3483 55.3764 89.6119C77.9928 85.9543 94.3224 78.785 101.51 69.362C109.312 59.1344 129.2 22.0582 127.606 20.7118C126.826 20.0529 113.819 20.3074 98.7004 21.2762C83.5838 22.245 70.8091 22.6329 70.3144 22.1383C68.8592 20.6851 75.8418 11.1061 79.6163 9.37997C85.9708 6.47364 143.634 3.00698 143.634 5.53155ZM145.292 38.1518C122.862 82.9926 113.743 96.1532 100.33 103.054C92.2474 107.212 68.6848 111.68 34.1311 115.607L11.8595 118.139L8.08085 113.129C4.5752 108.48 4.55262 108.025 7.77503 106.836C9.68385 106.13 17.2514 104.889 24.589 104.076C52.4229 100.995 84.4499 94.6836 92.1201 90.7715C104.098 84.6613 112.146 73.8241 131.05 38.3591L148.225 6.13294L151.938 11.7917C155.649 17.4483 155.649 17.4524 145.292 38.1518ZM123.109 23.8665C123.109 24.3775 122.037 27.1484 120.726 30.0239C118.786 34.2849 116.908 35.2516 110.586 35.2516C100.673 35.2516 99.1786 37.8501 104.661 45.549L109.051 51.7126L104.624 58.8758C102.188 62.8166 99.5789 66.0062 98.8235 65.9651C97.0461 65.8686 71.7963 29.4965 71.7963 27.0314C71.7963 25.999 79.4172 24.8435 88.7294 24.4637C98.0415 24.084 109.587 23.5832 114.386 23.3554C119.184 23.1255 123.109 23.3554 123.109 23.8665ZM188.788 25.8225C188.788 26.2822 182.629 42.2157 175.102 61.228C162.863 92.1446 161.412 97.319 161.375 110.168C161.33 126.731 164.039 133.028 184.749 164.522C191.789 175.225 199.745 187.462 202.429 191.717L207.312 199.451H200.032C192.951 199.451 192.259 198.698 174.435 171.541C139.118 117.723 139.048 116.998 163.637 56.8028C168.711 44.3852 173.651 32.1462 174.616 29.6073C175.903 26.2227 178.031 24.9892 182.58 24.9892C185.995 24.9892 188.788 25.3648 188.788 25.8225ZM214.167 51.3657C228.063 69.6309 231.86 76.0572 231.747 81.1269C231.39 97.0993 229.508 96.2927 211.31 72.3668C201.785 59.8425 193.051 49.9064 191.902 50.2882C190.755 50.6679 186.178 60.1401 181.732 71.3385C171.65 96.7279 169.743 115.958 175.921 129.923C180.154 139.489 202.343 174.821 204.12 174.821C204.701 174.821 211.035 163.132 218.194 148.847C231.162 122.975 231.226 122.893 234.631 127.753C240.107 135.571 238.652 141.392 223.945 170.455L210.056 197.903L193.556 172.508C160.556 121.721 159.031 115.796 170.55 83.1363C180.962 53.6071 193.429 24.6895 194.989 26.4382C195.789 27.3352 204.418 38.552 214.167 51.3657ZM114.191 40.3829C114.544 41.5117 113.905 43.8208 112.774 45.5141C110.993 48.1782 110.307 48.0571 107.676 44.6089C106.003 42.4169 104.636 39.8123 104.636 38.8209C104.636 36.3743 113.386 37.8049 114.191 40.3829ZM64.5346 61.6672C72.0201 72.2437 77.7137 81.3301 77.1862 81.8576C76.6587 82.3871 72.8021 83.5899 68.615 84.534C61.7166 86.0898 60.5343 85.6896 55.9552 80.2505C53.1782 76.9501 50.0502 74.249 49.0034 74.249C47.9567 74.249 45.545 77.5104 43.6444 81.4963C40.5595 87.9658 32.3988 93.0046 29.5766 90.1825C29.0388 89.6447 31.9267 81.4532 35.9948 71.9769C40.0628 62.5026 44.7137 51.6059 46.3311 47.7636C47.9485 43.9234 49.6438 41.1525 50.0995 41.6061C50.5531 42.0618 57.0492 51.0887 64.5346 61.6672ZM209.646 74.8688L225.372 95.8001L217.856 97.1117C213.722 97.8342 202.583 99.0964 193.103 99.9195L175.864 101.412L177.206 94.6979C179.025 85.6116 182.042 82.4589 188.918 82.4589C196.945 82.4589 198.269 79.0272 192.996 71.8948C189.677 67.406 188.854 64.2513 189.837 59.7748C190.57 56.4477 191.787 53.7733 192.542 53.8308C193.3 53.8903 200.997 63.3585 209.646 74.8688ZM143.956 80.4064C145.042 80.4064 145.358 79.4828 144.66 78.354C143.962 77.2251 145.356 76.3015 147.755 76.3015C152.404 76.3015 152.314 77.9558 146.928 91.4365L144.572 97.3333L137.004 86.5249C130.752 77.5925 129.818 75.0022 131.631 71.6156C133.716 67.7179 134.022 67.8308 137.903 73.9616C140.148 77.5063 142.872 80.4064 143.956 80.4064ZM192.507 76.8372C193.017 79.4808 191.824 80.4064 187.912 80.4064C182.151 80.4064 182.03 80.2546 183.916 75.3429C185.552 71.082 191.602 72.1349 192.507 76.8372ZM54.1141 82.1983C57.4002 85.8291 57.3673 86.1021 53.5251 87.1058C48.6833 88.3722 47.1664 87.1817 47.1664 82.1162C47.1664 77.299 49.7074 77.3298 54.1141 82.1983ZM136.257 90.673C140.315 96.3215 143.634 101.863 143.634 102.988C143.634 104.115 140.029 105.036 135.625 105.036C128.845 105.036 126.978 104.027 123.447 98.4499C119.506 92.2267 119.463 91.5515 122.661 86.1349C124.523 82.9844 126.684 80.4064 127.464 80.4064C128.244 80.4064 132.201 85.0266 136.257 90.673ZM119.004 96.5472C119.004 101.264 130.165 109.141 136.848 109.141C143.837 109.141 143.868 109.18 143.237 117.846C142.741 124.707 141.737 126.686 138.502 127.189C131.089 128.338 124.859 132.505 121.848 138.328L118.887 144.056L110.898 139.982C103.152 136.031 102.982 135.713 105.293 129.592C107.35 124.141 107.046 122.185 103.054 115.25L98.4315 107.218L104.248 104.211C107.448 102.555 111.266 99.7553 112.733 97.9881C115.636 94.4927 119.004 93.7169 119.004 96.5472ZM100.357 116.042C103.955 121.867 104.271 123.946 102.374 129.383C100.047 136.06 98.9631 136.803 95.2645 134.254C92.9227 132.638 80.0063 114.225 80.0063 112.499C80.0063 111.608 84.2755 110.656 93.6923 109.449C95.0121 109.279 98.0107 112.247 100.357 116.042ZM83.4586 124.022L90.6628 133.771H80.0309C72.3936 133.771 69.6659 133.049 70.3432 131.206C70.8604 129.796 72.3218 128.87 73.5923 129.153C76.9645 129.902 76.3529 127.279 71.7963 121.456C66.62 114.839 66.6672 112.803 71.9749 113.616C74.3291 113.977 79.4973 118.661 83.4586 124.022ZM219.227 139.416C214.666 149.294 209.527 160.099 207.807 163.43L204.679 169.485L200.878 164.791C197.421 160.521 197.351 159.565 200.116 154.22C205.286 144.223 204.221 141.981 194.299 141.981C186.143 141.981 185.164 141.394 181.896 134.543C179.946 130.452 178.62 126.848 178.951 126.534C179.597 125.916 212.915 122.207 222.008 121.74L227.521 121.456L219.227 139.416ZM149.68 137.661L153.758 145.655L146.975 146.928C142.665 147.736 139.192 150.062 137.46 153.301C135.957 156.106 134.137 158.401 133.41 158.401C131.128 158.401 123.109 146.406 123.109 142.993C123.109 137.835 133.332 129.666 139.787 129.666C144.479 129.666 146.39 131.21 149.68 137.661ZM111.968 143.381C121.089 148.258 127.429 155.411 154.171 190.991C170.515 212.735 171.736 215.019 169.877 220.351C168.768 223.531 167.161 226.133 166.305 226.133C165.449 226.133 155.431 213.816 144.04 198.763C107.434 150.384 104.406 148.896 46.7457 150.967C25.5291 151.728 8.16911 151.609 8.16911 150.702C8.16911 149.795 9.56891 147.055 11.2786 144.612C15.2523 138.939 20.7509 138.348 66.6651 138.66C100.41 138.89 104.335 139.299 111.968 143.381ZM199.051 147.176C199.051 151.46 192.902 153.524 190.71 149.978C189.509 148.036 190.071 146.665 192.456 145.719C197.93 143.545 199.051 143.794 199.051 147.176ZM157.767 151.731C159.444 154.707 158.67 155.698 153.252 157.519C149.656 158.725 145.801 161.726 144.686 164.189C142.152 169.788 140.189 169.872 138.469 164.458C136.741 159.007 142.141 150.758 148.2 149.594C150.768 149.101 153.516 148.572 154.306 148.418C155.097 148.264 156.655 149.754 157.767 151.731ZM101.557 158.136C111.594 162.722 120.701 172.494 145.273 205.048C166.95 233.769 168.034 230.663 135.075 234.241C103.056 237.718 97.0358 237.264 91.176 230.942C88.3969 227.944 86.4142 225.199 86.7693 224.842C87.1264 224.487 100.297 222.706 116.038 220.881C131.78 219.058 144.853 217.377 145.089 217.145C145.325 216.914 138.656 207.827 130.272 196.951C105.028 164.214 97.4976 160.454 57.1703 160.454C38.4167 160.454 30.7465 161.147 30.7465 162.847C30.7465 164.162 37.2283 175.31 45.1488 187.616C53.0715 199.923 59.0955 210.729 58.5393 211.63C56.8665 214.336 46.4604 211.534 41.5303 207.049C37.0682 202.991 8.16911 158.496 8.16911 155.686C8.16911 154.922 27.3353 154.317 50.7583 154.341C87.5779 154.38 94.46 154.893 101.557 158.136ZM61.5031 165.072C61.4846 166.484 60.6 169.015 59.5348 170.7C57.002 174.706 52.2197 170.396 54.0136 165.722C55.477 161.907 61.5483 161.379 61.5031 165.072ZM83.6803 165.616C84.0066 165.876 79.5917 176.094 73.8693 188.32L63.4632 210.549L53.7036 195.252C48.3364 186.836 41.8238 176.49 39.2315 172.255L34.517 164.559H40.7011C45.231 164.559 48.0613 166.207 51.2714 170.716C56.8747 178.585 58.685 178.458 63.7711 169.838C67.5887 163.368 68.5329 162.896 75.5031 163.972C79.6738 164.614 83.3519 165.353 83.6803 165.616ZM117.38 193.907C113.511 204.607 114.061 205.608 123.817 205.608C130.136 205.608 133.821 206.807 136.462 209.726C138.511 211.992 139.808 214.2 139.346 214.637C137.811 216.084 86.0776 221.257 86.64 219.906C86.9417 219.18 91.804 208.751 97.4422 196.731L107.692 174.879L113.778 180.962C119.465 186.65 119.699 187.493 117.38 193.907ZM126.852 198.088C127.218 199.972 126.023 202.088 124.199 202.79C119.736 204.502 118.343 202.716 120.018 197.44C121.586 192.495 125.847 192.899 126.852 198.088Z" fill="white"/>
</svg>
