<svg width="25" height="24" viewBox="0 0 25 24" fill="none" xmlns="http://www.w3.org/2000/svg">
<g clip-path="url(#clip0_142_74)">
<path d="M16.4142 12C16.4142 12.7595 16.189 13.5019 15.7671 14.1334C15.3451 14.7649 14.7454 15.2571 14.0437 15.5477C13.3421 15.8383 12.57 15.9144 11.8251 15.7662C11.0802 15.618 10.396 15.2523 9.85893 14.7153C9.32189 14.1783 8.95617 13.494 8.808 12.7491C8.65984 12.0043 8.73588 11.2322 9.02652 10.5305C9.31716 9.82883 9.80934 9.2291 10.4408 8.80716C11.0723 8.38521 11.8147 8.16 12.5742 8.16C13.5917 8.16316 14.5666 8.56875 15.286 9.28821C16.0055 10.0077 16.4111 10.9825 16.4142 12V12ZM24.5742 6.72V17.28C24.5742 19.0623 23.8662 20.7715 22.606 22.0318C21.3457 23.292 19.6365 24 17.8542 24H7.29422C5.51196 24 3.80271 23.292 2.54246 22.0318C1.28222 20.7715 0.574219 19.0623 0.574219 17.28V6.72C0.574219 4.93775 1.28222 3.22849 2.54246 1.96824C3.80271 0.707998 5.51196 0 7.29422 0H17.8542C19.6365 0 21.3457 0.707998 22.606 1.96824C23.8662 3.22849 24.5742 4.93775 24.5742 6.72V6.72ZM18.3342 12C18.3342 10.8608 17.9964 9.74714 17.3635 8.79991C16.7306 7.85269 15.831 7.11441 14.7785 6.67845C13.726 6.24249 12.5678 6.12843 11.4505 6.35068C10.3332 6.57293 9.30683 7.12151 8.50128 7.92706C7.69573 8.73262 7.14715 9.75895 6.9249 10.8763C6.70264 11.9936 6.81671 13.1518 7.25267 14.2043C7.68863 15.2568 8.42691 16.1563 9.37413 16.7893C10.3214 17.4222 11.435 17.76 12.5742 17.76C14.1019 17.76 15.5669 17.1531 16.6472 16.0729C17.7274 14.9927 18.3342 13.5276 18.3342 12ZM20.2542 5.76C20.2542 5.47519 20.1698 5.19679 20.0115 4.95998C19.8533 4.72317 19.6284 4.5386 19.3653 4.42961C19.1022 4.32062 18.8126 4.29211 18.5333 4.34767C18.254 4.40323 17.9974 4.54038 17.796 4.74177C17.5946 4.94315 17.4575 5.19974 17.4019 5.47907C17.3463 5.7584 17.3748 6.04794 17.4838 6.31106C17.5928 6.57419 17.7774 6.79909 18.0142 6.95732C18.251 7.11555 18.5294 7.2 18.8142 7.2C19.1961 7.2 19.5624 7.04829 19.8325 6.77823C20.1025 6.50818 20.2542 6.14191 20.2542 5.76Z" fill="black"/>
</g>
<defs>
<clipPath id="clip0_142_74">
<rect width="24" height="24" fill="white" transform="translate(0.574219)"/>
</clipPath>
</defs>
</svg>
