<svg xmlns="http://www.w3.org/2000/svg" viewBox="0 0 34.32 34.32" data-inject-url="https://www.waytoodigital.com/assets/img/isologo.svg" class="injectable" id="isologo" width="40" height="40"><g id="Capa_2--inject-5" data-name="Capa 2"><g id="Layer_1--inject-5" data-name="Layer 1"><rect x="17.47" y="17.16" width="16.85" height="16.85" rx="8.43" style="fill:#00c4bf"/><path d="M23.78,28.59v-6h2.13a3,3,0,0,1,2.18.87,2.91,2.91,0,0,1,.9,2.14,2.88,2.88,0,0,1-.89,2.13,3,3,0,0,1-2.19.87Zm1-1h1.11a2.05,2.05,0,1,0,0-4.1H24.8Z" style="fill:#1a1a23"/><path class="isologo-w-square" d="M17.47,17.47H0V0H17.47ZM.62,16.85H16.85V.62H.62Z" style="fill:#fff"/><path class="isologo-w-letter" d="M6,11.73l-1.3-6h1l1,5.2L8,5.74H9.53l1.12,5.19,1.06-5.19h1l-1.32,6H9.87L8.75,6.37,7.58,11.73Z" style="fill:#fff"/><rect class="isologo-t-square" y="16.85" width="17.47" height="17.47" style="fill:#fff"/><path class="isologo-t-letter" d="M8,28.58v-5H6.05v-.95h4.82v.95H9v5Z" style="fill:#1a1a23"/><rect class="isologo-dot" x="24.35" y="6.89" width="3.1" height="3.1" rx="1.55" style="fill:#fff"/></g></g></svg>